<?xml version="1.0" encoding="utf-8"?>
<!-- Generator: Adobe Illustrator 27.5.0, SVG Export Plug-In . SVG Version: 6.00 Build 0)  -->
<svg version="1.1" xmlns="http://www.w3.org/2000/svg" xmlns:xlink="http://www.w3.org/1999/xlink" x="0px" y="0px"
	 viewBox="16 97 470 316" style="enable-background:new 0 0 500 500;" xml:space="preserve">
<g id="BACKGROUND">
	<rect style="fill:#0d1117;" width="500" height="500"/>
	<path style="fill:#7BBDD1;" d="M48.252,389.415c-37.166-30.079-37.179-129.916-28.015-172.183
		c13.04-60.148,56.792-69.21,105.898-66.831c35.353,1.712,59.736-1.589,73.153-22.19c20.271-31.126,65.852-41.968,101.9-14.755
		c47.928,36.181,63.792-10.517,121.273,15.861c32.87,15.084,48.101,48.744,58.245,74.574c9.969,25.386,7.929,151.144-7.412,170.081
		c-16.484,20.347-61.838,20.538-86.321,23.35c-66.939,7.688-134.477,6.358-201.649,3.044c-26.039-1.285-52.045-3.051-78.094-4.059
		C91.846,395.711,61.007,399.737,48.252,389.415z"/>
</g>
<g id="OBJECTS">
	<g>
		<g>
			<polygon style="fill:#EF8B9F;" points="98.931,249.293 85.597,274.743 111.264,279.293 125.483,256.96 			"/>
			<g>
				<path style="fill:#F1F4C1;" d="M53.271,287.96c-5.783,17.612-5.13,89.246-8.581,118.944c-1.491,12.833,78.115,4.28,90.922,4.406
					c-11.16-38.162,15.225-115.352-2.316-132.016C112.235,259.285,64.271,254.46,53.271,287.96z"/>
				<g>
					<path style="fill:#482939;" d="M114.872,303.785c0.286,2.645,0.724,5.273,1.263,7.873c0.535,2.6,1.177,5.179,2.013,7.687
						c0.84,2.506,1.897,4.928,3.162,7.202c1.256,2.267,2.862,4.402,5.197,5.707l-0.039,0.092c-1.299-0.386-2.47-1.169-3.465-2.103
						c-1.001-0.938-1.816-2.046-2.554-3.188c-1.442-2.319-2.317-4.903-3.065-7.473c-1.485-5.16-2.282-10.469-2.612-15.79
						L114.872,303.785z"/>
				</g>
			</g>
		</g>
		<g>
			<g>
				<path style="fill:#F49B9E;" d="M134.489,238.106c0,13.474-0.863,27.078-11.725,27.078s-27.609-13.604-27.609-27.078
					c0-13.474,8.805-24.396,19.667-24.396S134.489,224.633,134.489,238.106z"/>
				<g>
					<path style="fill:#544175;" d="M72.931,231.793c-1.395,13.551,19.344,29.708,12.667,42.95
						c-4.539,9.001-35.728,46.63-32.022,58.662c4.1,13.308,18.214,12.244,29.434,3.996c28.987-21.306,1.74-60.875,9.095-65.275
						c17.24-10.313,61.634-32.073,35.492-63.092C112.683,191.338,75.264,209.126,72.931,231.793z"/>
					<path style="fill:#FCCFA1;" d="M84.942,274.575c0,0,0.183-8.45,6.508-2.616C97.775,277.792,84.942,274.575,84.942,274.575z"/>
				</g>
			</g>
			<polygon style="fill:#482939;" points="134.489,238.106 136.597,252.295 133.296,254.396 			"/>
		</g>
		<path style="fill:#FCCFA1;" d="M129.36,362.591c-13.878,9.261-54.576-29.133-68.763-64.631c0,0-7.192-15.518-7.32-18.024
			c-0.385-7.564,14.909-18.197,20.532-9.741c1.779,2.675-3.496,13.864-2.2,17.11c12.944,32.43,47.68,56.219,47.68,56.219
			c6.129-5.989,20.528-41.325,24.035-41.711c0,0,2.906,5.506,4.945,11.578C150.13,318.931,141.891,354.229,129.36,362.591z"/>
	</g>
	<g>
		<path style="fill:#544175;" d="M260.715,276.014c-20.2,9.421,7.016,23.059,10.039,34.717c1.976,7.617,0.511,15.776,2.094,23.581
			c1.536,7.571,0.579,14.338-0.452,21.876c-1.872,13.673-3.833,27.189-7.177,40.585c-1.876,7.518-3.907,11.99,5.671,12.581
			c9.051,0.558,88.468,0.121,92.835-3.894c5.425-4.988-5.222-32.976-5.628-40.27c-0.961-17.217-0.439-24.598,0.748-41.605
			c0.621-8.892,0.635-25.853,9.238-42.164c1.048-1.988,0.933-4.412-0.375-6.239c-9.157-12.784-34.19-13.671-48.208-14.892
			C298.151,258.431,279.591,267.211,260.715,276.014z"/>
		<path style="fill:#F49B9E;" d="M355.891,339.814c-15.856,5.885-48.762,11.332-63.794,19.146c-5.368,2.79-28.121,16.58-27.5,2.75
			c0.852-18.967,15.123-11.924,24.584-15.242c11.646-4.084,36.733-12.781,55.128-24.169c13.701-8.481,21.634-23.466,25.164-26.342
			c0,0,13.61,12.536,13.775,15.119C383.499,315.01,367.329,335.569,355.891,339.814z"/>
		<path style="fill:#FCCFA1;" d="M271.264,346.293c15.861,5.871,47.16,12.158,62.665,18.984c5.537,2.438,25.978,11.556,28.001,4.349
			c5.638-20.085-12.844-14.634-22.5-17.333c-20.738-5.798-58.123-20.112-66.809-26.302c-6.527-4.651-18.672-22.517-21.858-22.198
			C239.656,304.905,234.98,332.864,271.264,346.293z"/>
		<path style="fill:#482939;" d="M291.098,195.085c-37.665,12.784-14.031,162.431,32.749,167.47
			c42.272,4.553,40.158-15.45,35.432-48.612C350.253,250.6,346.36,176.328,291.098,195.085z"/>
	</g>
	<g>
		<g>
			<g>
				<polygon style="fill:#EF8B9F;" points="427.786,284.013 399.297,289.96 393.84,248.96 419.571,248.96 				"/>
				<g>
					<defs>
						<path id="SVGID_1_" d="M368.79,299.825c-0.15,17.474,3.94,36.329,6.555,53.509c1.778,11.679-7.008,34.914-4.232,43.676
							c4.147,13.089,81.581,9.812,82.451-3.384c0.846-12.839,0.023-44.392,1.491-70.36c1.468-25.968-3.033-48.949-10.457-56.016
							c-3.979-3.788-9.979-1.945-29.582,2.21C388.126,275.158,369,275.375,368.79,299.825z"/>
					</defs>
					<clipPath id="SVGID_00000134236641217786468200000008481784999094704288_">
						<use xlink:href="#SVGID_1_"  style="overflow:visible;"/>
					</clipPath>
					<path style="clip-path:url(#SVGID_00000134236641217786468200000008481784999094704288_);fill:#E5E3F4;" d="M368.79,299.825
						c-0.15,17.474,3.94,36.329,6.555,53.509c1.778,11.679-7.008,34.914-4.232,43.676c4.147,13.089,81.581,9.812,82.451-3.384
						c0.846-12.839,0.023-44.392,1.491-70.36c1.468-25.968-3.533-56.16-10.957-63.227c-3.979-3.788-29.503,6.324-43.074,7.211
						C375.956,268.889,369,275.375,368.79,299.825z"/>
					<g style="clip-path:url(#SVGID_00000134236641217786468200000008481784999094704288_);">
						<g>
							<path style="fill:#482939;" d="M474.695,275.101c-39.657,13.554-79.278,20.129-121.177,20.426
								c0.012-2.638,0.021-3.957,0.047-6.592c41.155-0.406,80.049-6.978,118.957-20.423
								C473.384,271.148,473.818,272.466,474.695,275.101z"/>
							<path style="fill:#482939;" d="M476.85,303.896c-42.933,13.241-85.878,19.046-130.783,17.971
								c0.007-2.643,0.013-3.965,0.033-6.605c44.16,0.966,86.373-4.833,128.559-17.962
								C475.529,299.938,475.967,301.258,476.85,303.896z"/>
							<path style="fill:#482939;" d="M478.51,332.674c-46.219,12.882-92.433,17.849-140.347,15.351
								c0.001-2.649,0.005-3.973,0.02-6.619c47.221,2.332,92.575-2.613,138.12-15.337
								C477.179,328.712,477.62,330.033,478.51,332.674z"/>
							<path style="fill:#482939;" d="M479.675,361.43c-49.568,12.431-98.918,16.488-149.87,12.568
								c-0.004-2.655-0.002-3.982,0.008-6.633c50.204,3.813,98.818-0.236,147.639-12.549
								C478.334,357.462,478.778,358.785,479.675,361.43z"/>
							<path style="fill:#482939;" d="M480.346,390.157c-52.92,11.988-105.38,15.078-159.348,9.621
								c-0.009-2.661-0.01-3.991-0.005-6.648c53.218,5.35,104.942,2.27,157.113-9.597
								C478.995,386.183,479.443,387.508,480.346,390.157z"/>
						</g>
					</g>
				</g>
			</g>
			<g>
				<g>
					<path style="fill:#F49B9E;" d="M414.328,226.497c4.28,13.403-12.381,30.696-23.499,34.246
						c-11.118,3.55-12.764-7.901-16.761-21.391c-6.669-22.508-1.496-39.165,9.621-42.714
						C394.806,193.088,410.048,213.094,414.328,226.497z"/>
					<path style="fill:#FCCFA1;" d="M427.136,210.152c7.975,21.133,8.207,35.081,6.856,41.668
						c-0.629,3.064-47.944,15.43-47.944,15.43c7.073-6.809,0.898-20.648-4.976-34.494c-5.317-12.533-17.601-18.612-12.377-25.947
						C381.415,188.95,419.576,190.119,427.136,210.152z"/>
				</g>
				<g>
					<path style="fill:#482939;" d="M436.256,211.094c2.553,11.465-9.677,22.177-29.95,21.456
						c-14.988-0.533-38.094-13.125-34.351-27.648c3.743-14.523,22.44-22.258,36.963-18.516
						C423.44,190.129,432.997,196.455,436.256,211.094z"/>
					<path style="fill:#482939;" d="M409.425,195.689c0,0,0.028-21.749,13.71-19.129"/>
				</g>
				<polygon style="fill:#482939;" points="373.251,236.376 371.809,249.151 376.882,249.119 				"/>
			</g>
		</g>
		<path style="fill:#FCCFA1;" d="M360.718,303.789c11.091,16.296,21.863,35.599,33.121,43.703
			c12.469,8.975,33.946-28.408,47.508-64.033c0,0,8.417-9.333,8.578-11.832c0.487-7.543-13.245-17.86-18.519-9.333
			c-1.668,2.697-0.695,12.112-1.934,15.37c-12.375,32.546-32.194,46.672-32.194,46.672c-5.472-5.856-26.009-42.594-29.194-42.915
			c0,0-2.605,4.816-4.572,10.902C361.717,297.876,360.718,303.789,360.718,303.789z"/>
	</g>
	<g>
		<g>
			<g>
				<path style="fill:#EC5F63;" d="M249.431,335.261c9.768,12.481,25.768-11.02,20.655-20.134
					c-3.081-5.492-11.009-14.577-13.529-22.967c-2.6-8.68-4.77-20.33-10.63-27.43c-8.87-10.73-35.79-11.92-48.86-12.38
					c-17.06-0.6-34.76,3.59-44.52,18.82c-1.19,1.87-2.19,3.84-3.06,5.88l6.73,52.19c0.05-0.07,0.1-0.14,0.16-0.21
					c0.12,1.19,0.21,2.39,0.27,3.59l0.01,0.04c0.95,15.47-1.79,31.23-4.1,46.43c-0.9,5.93-7.19,27.78-2.67,31.79
					c3.94,3.49,19.78,1.65,24.55,1.76c13.48,0.3,27,0.13,40.47-0.58c9.55-0.5,26.1,0.74,34.76-3.94c4.13-2.24,3.48-1.76,2.7-7.19
					c-0.69-4.74-1.24-9.51-2.1-14.23c-1.78-9.73-7.15-19.02-6.54-28.95C244.267,349.11,238.372,321.13,249.431,335.261z"/>
				<path style="fill:none;stroke:#E5E3F4;stroke-miterlimit:10;" d="M177.334,304.294c7.119-2.313,7.73,9.495,5.179,13.777
					C174.926,330.808,155.898,311.257,177.334,304.294z"/>
				<path style="fill:none;stroke:#E5E3F4;stroke-miterlimit:10;" d="M220.331,285.758c1.222,0.104,2.546,0.382,3.32,1.334
					c0.772,0.949,0.777,2.288,0.729,3.51c-0.044,1.136-0.11,2.307-0.606,3.329c-2.805,5.782-13.734,4.402-16.683-0.533
					C202.446,285.625,215.697,285.365,220.331,285.758z"/>
				<path style="fill:none;stroke:#E5E3F4;stroke-miterlimit:10;" d="M245.002,290.024c-2.719,1.859-16.803-8.365-7.03-11.144
					C243.837,277.212,247.721,288.164,245.002,290.024z"/>
				<path style="fill:none;stroke:#E5E3F4;stroke-miterlimit:10;" d="M190.45,284.98c0.464,0.035,0.941,0.099,1.338,0.341
					c0.826,0.503,1.046,1.583,1.188,2.539c0.293,1.973,0.493,4.258-0.889,5.695c-0.757,0.786-1.852,1.144-2.923,1.353
					c-3.103,0.605-8.778,0.338-8.373-4.027C181.199,286.491,186.803,284.702,190.45,284.98z"/>
				<path style="fill:none;stroke:#E5E3F4;stroke-miterlimit:10;" d="M194.67,306.114c-1.411-2.107,7.549-15.987,9.062-4.56
					C204.272,305.629,196.081,308.221,194.67,306.114z"/>
				<path style="fill:none;stroke:#E5E3F4;stroke-miterlimit:10;" d="M200.645,379.265c-1.077-1.608,5.759-12.196,6.914-3.479
					C207.971,378.896,201.722,380.873,200.645,379.265z"/>
				<path style="fill:none;stroke:#E5E3F4;stroke-miterlimit:10;" d="M165.285,288.193c8.009-12.311,5.752,11.292,2.766,11.79
					C165.064,300.481,162.594,292.328,165.285,288.193z"/>
				<path style="fill:none;stroke:#E5E3F4;stroke-miterlimit:10;" d="M154.736,279.695c0.485-1.845,1.2-9.569,4.603-6.391
					C165.773,279.313,153.49,284.432,154.736,279.695z"/>
				<path style="fill:none;stroke:#E5E3F4;stroke-miterlimit:10;" d="M237.216,303.52c1.42-4.259,0.4-7.869,4.698-6.678
					C250.661,299.264,234.592,311.387,237.216,303.52z"/>
				<path style="fill:none;stroke:#E5E3F4;stroke-miterlimit:10;" d="M202.41,323.882c-6.303,0.072-10.624,3.086-11.02-3.165
					C190.586,307.997,214.054,323.748,202.41,323.882z"/>
				<path style="fill:none;stroke:#E5E3F4;stroke-miterlimit:10;" d="M222.319,314.617c-1.178-2.431,5.192-12.5,6.769-5.503
					C230.474,315.267,225.123,320.401,222.319,314.617z"/>
				<path style="fill:none;stroke:#E5E3F4;stroke-miterlimit:10;" d="M226.081,348.228c-7.2-9.48,16.847-0.955,9.287,0.057
					C228.979,349.142,229.879,351.994,226.081,348.228z"/>
				<path style="fill:none;stroke:#E5E3F4;stroke-miterlimit:10;" d="M169.596,399.005c-0.897,0.772-2.077,1.141-3.249,1.312
					c-6.848,1.001-15.729-7.368-8.104-12.684C164.733,383.109,175.923,393.558,169.596,399.005z"/>
				<path style="fill:none;stroke:#E5E3F4;stroke-miterlimit:10;" d="M177.098,362.318c5.717,3.995-2.756,11.528-8.036,8.353
					C162.333,366.625,172.481,359.092,177.098,362.318z"/>
				<path style="fill:none;stroke:#E5E3F4;stroke-miterlimit:10;" d="M234.188,384.589c2.767,2.401,4.052,6.386,3.209,9.951
					c-0.487,2.061-1.699,4.012-3.537,5.061c-1.824,1.042-4.11,1.1-6.102,0.435c-1.993-0.665-3.712-1.997-5.113-3.562
					c-1.515-1.692-2.728-3.773-2.862-6.04C219.305,382.369,228.847,379.955,234.188,384.589z"/>
				<path style="fill:none;stroke:#E5E3F4;stroke-miterlimit:10;" d="M186.869,373.686c1.471,0.311,2.21,1.979,2.414,3.469
					c0.605,4.424-4.35,12.816-9.171,7.887C176.359,381.205,182.072,372.673,186.869,373.686z"/>
				<path style="fill:none;stroke:#E5E3F4;stroke-miterlimit:10;" d="M207.613,387.98c1.587,0.985,2.522,2.762,3.031,4.559
					c0.417,1.474,0.593,3.06,0.178,4.535c-0.683,2.428-2.956,4.224-5.43,4.711c-4.096,0.806-12.313-2.426-10.59-7.746
					C196.195,389.734,203.409,385.37,207.613,387.98z"/>
			</g>
			<g>
				<path style="fill:#482939;" d="M230.313,292.981c0.75,3.337,1.654,6.639,2.632,9.913c0.971,3.276,2.03,6.526,3.251,9.712
					c1.228,3.182,2.585,6.309,4.072,9.361c1.461,3.067,3.108,6.035,5.1,8.826l-0.076,0.065c-2.447-2.439-4.278-5.419-5.918-8.443
					c-1.63-3.046-2.796-6.298-3.93-9.537c-1.135-3.242-2.102-6.536-2.98-9.849c-0.853-3.32-1.628-6.659-2.249-10.029
					L230.313,292.981z"/>
			</g>
			<path style="fill:#F49B9E;" d="M159.264,351.749c15.861,5.871,47.16,12.157,62.665,18.984
				c5.537,2.438,25.978,11.556,28.001,4.349c5.638-20.085-12.844-14.634-22.5-17.333c-20.738-5.798-58.123-20.112-66.809-26.302
				c-6.527-4.651-18.672-22.517-21.858-22.198C127.656,310.361,122.98,338.32,159.264,351.749z"/>
			<path style="fill:#FCCFA1;" d="M240.931,335.793c-16.203,4.849-49.078,10.354-64.583,17.181
				c-5.537,2.438-25.003,20.714-26.875,6.998c-1.987-14.555,5.39-12.526,16.75-16.448c9.958-3.438,45.19-15.781,64.282-25.957
				c14.22-7.579,23.104-22.02,26.812-24.662c0,0,12.772,13.388,12.77,15.977C270.083,312.823,252.618,332.296,240.931,335.793z"/>
		</g>
		<g>
			<path style="fill:#544175;" d="M163.847,272.683c-2.165,12.344,50.58,4.309,69.721,1.631c2.537-0.355,4.175-2.84,3.525-5.317
				c-5.371-20.469-3.747-57.228-24.81-61.915C187.911,201.659,167.482,251.967,163.847,272.683z"/>
			<g>
				<path style="fill:#FCCFA1;" d="M236.478,222.421c-2.106,17.328-17.202,29.873-33.942,29.873s-31.836-12.545-33.942-29.873
					c-2.405-19.784,12.645-38.004,33.942-38.004S238.883,202.637,236.478,222.421z"/>
				<path style="fill:#482939;" d="M227.935,210.277c-1.7,13.988-13.886,24.114-27.399,24.114
					c-13.513,0-25.699-10.126-27.399-24.114c-1.941-15.97,10.208-30.678,27.399-30.678S229.876,194.307,227.935,210.277z"/>
				<path style="fill:#FCE09D;" d="M227.324,206.454c-1.662,13.676-13.576,23.577-26.788,23.577s-25.126-9.901-26.788-23.577
					c-1.898-15.614,9.98-29.994,26.788-29.994S229.222,190.84,227.324,206.454z"/>
				<g>
					<path style="fill:#FFEAB0;" d="M223.924,197.316c-1.451,9.51-11.853,16.394-23.388,16.394
						c-11.535,0-21.936-6.884-23.388-16.394c-1.657-10.857,8.713-20.856,23.388-20.856
						C215.21,176.46,225.58,186.459,223.924,197.316z"/>
					<g>
						<g>
							<path style="fill:#482939;" d="M195.619,184.372c3.689,1.648,7.365,3.321,11.029,5.02c1.836,0.84,3.698,1.629,5.482,2.577
								c1.782,0.951,3.547,1.937,5.239,3.071l-0.044,0.09c-1.933-0.644-3.793-1.436-5.636-2.263
								c-1.841-0.83-3.605-1.819-5.393-2.757c-3.586-1.858-7.16-3.74-10.721-5.648L195.619,184.372z"/>
						</g>
						<g>
							<path style="fill:#482939;" d="M200.563,179.557c3.379,1.967,6.743,3.957,10.093,5.971c1.68,0.999,3.39,1.949,5.006,3.049
								c1.614,1.103,3.207,2.238,4.712,3.513l-0.053,0.085c-1.797-0.813-3.505-1.767-5.193-2.753
								c-1.686-0.989-3.277-2.128-4.899-3.218c-3.255-2.164-6.494-4.351-9.719-6.562L200.563,179.557z"/>
						</g>
						<g>
							<path style="fill:#482939;" d="M191.796,190.665c3.042-1.687,6.097-3.349,9.165-4.986c1.529-0.827,3.033-1.706,4.616-2.426
								c1.585-0.717,3.187-1.4,4.863-1.934l0.045,0.089c-1.431,1.023-2.937,1.898-4.459,2.739c-1.524,0.837-3.128,1.517-4.706,2.247
								c-3.147,1.478-6.307,2.932-9.478,4.36L191.796,190.665z"/>
						</g>
						<g>
							<path style="fill:#482939;" d="M200.51,196.167c2.726-1.847,5.467-3.671,8.222-5.47c1.373-0.908,2.715-1.865,4.151-2.671
								c1.437-0.803,2.895-1.574,4.439-2.203l0.052,0.085c-1.258,1.095-2.602,2.048-3.967,2.969
								c-1.367,0.918-2.826,1.685-4.255,2.501c-2.848,1.648-5.712,3.273-8.589,4.874L200.51,196.167z"/>
						</g>
					</g>
				</g>
				<g>
					<path style="fill:#5A3844;" d="M209.729,235.241c13.413-11.518-6.535-6.164-9.316-6.351c-2.933-0.197-23.006-7.217-8.386,4.575
						c1.437,1.159,3.273,0.519,4.486,0.365c-5.569,6.806-13.956,19.867-3.079,26.609c4.353-4.46,5.999-15.349,6.621-22.947
						c0.622,7.598,2.268,18.488,6.621,22.947c10.018-6.21,3.695-17.776-1.718-24.882
						C206.226,235.765,208.214,236.542,209.729,235.241z"/>
					<g>
						<g>
							<path style="fill:#482939;" d="M200.418,228.939c-0.976,0.292-1.936,0.783-2.677,1.472c-0.755,0.685-1.171,1.662-1.083,2.639
								c0.037,1.012,0.559,1.872,1.449,2.254c0.871,0.397,1.902,0.471,2.907,0.427c0.504-0.026,1.014-0.081,1.513-0.161
								c0.433-0.077,0.839-0.268,1.158-0.559c0.651-0.589,0.931-1.44,0.702-2.345c-0.161-0.955-0.578-1.846-1.276-2.499
								C202.42,229.5,201.428,229.142,200.418,228.939z M200.409,228.84c0.534-0.037,1.079-0.005,1.615,0.105
								c0.532,0.132,1.056,0.355,1.524,0.682c0.949,0.661,1.526,1.747,1.814,2.822c0.135,0.52,0.192,1.226-0.005,1.81
								c-0.183,0.6-0.562,1.126-1.038,1.513c-0.482,0.386-1.073,0.62-1.676,0.686c-0.538,0.053-1.073,0.078-1.614,0.073
								c-1.073-0.008-2.193-0.124-3.214-0.646c-0.503-0.262-0.965-0.664-1.25-1.177c-0.309-0.514-0.367-1.09-0.405-1.635
								c0.006-0.557,0.099-1.124,0.357-1.621c0.258-0.489,0.602-0.931,1.026-1.266C198.384,229.505,199.368,229.079,200.409,228.84z
								"/>
						</g>
						<g>
							<path style="fill:#482939;" d="M202.584,236.947c0.657,2.027,1.237,4.077,1.748,6.148c0.252,1.036,0.575,2.062,0.684,3.128
								c0.109,1.064,0.16,2.142,0.012,3.23l-0.099,0.011c-0.399-1.021-0.66-2.045-0.899-3.076c-0.251-1.028-0.316-2.089-0.482-3.136
								c-0.334-2.092-0.685-4.188-1.061-6.281L202.584,236.947z"/>
						</g>
						<g>
							<path style="fill:#482939;" d="M196.963,236.174c-0.992,0.98-1.889,2.055-2.698,3.179c-0.825,1.112-1.538,2.304-2.071,3.554
								c-0.512,1.256-0.852,2.567-0.898,3.865c-0.073,1.308,0.218,2.587,0.759,3.908l-0.082,0.058
								c-1.008-1.016-1.627-2.476-1.677-3.977c-0.079-1.521,0.535-2.926,1.175-4.195c1.323-2.563,3.272-4.676,5.427-6.468
								L196.963,236.174z"/>
						</g>
						<g>
							<path style="fill:#482939;" d="M198.563,238.139c-0.346,1.925-0.719,3.843-1.119,5.754c-0.201,0.955-0.318,1.932-0.632,2.858
								c-0.308,0.928-0.655,1.845-1.165,2.721l-0.097-0.025c-0.023-1.013,0.115-1.984,0.293-2.945
								c0.172-0.963,0.541-1.875,0.826-2.808c0.572-1.867,1.171-3.727,1.797-5.579L198.563,238.139z"/>
						</g>
						<g>
							<path style="fill:#482939;" d="M204.557,238.1c1.305,1.897,2.506,3.865,3.586,5.911c0.529,1.027,1.115,2.045,1.447,3.175
								c0.305,1.115,0.581,2.356,0.223,3.53l-0.099-0.013c-0.202-1.133-0.652-2.137-1.067-3.183
								c-0.451-1.028-0.783-2.115-1.228-3.166c-0.905-2.091-1.895-4.163-2.949-6.202L204.557,238.1z"/>
						</g>
						<g>
							<path style="fill:#482939;" d="M204.945,230.673c0.649-0.65,1.365-1.241,2.228-1.664c0.438-0.189,0.927-0.344,1.474-0.292
								c0.559,0.032,1.088,0.434,1.353,0.887c0.166,0.217,0.257,0.472,0.355,0.729c0.072,0.282,0.123,0.613-0.022,0.985
								c-0.076,0.163-0.211,0.322-0.337,0.444c-0.134,0.088-0.283,0.206-0.422,0.25c-0.284,0.111-0.553,0.143-0.813,0.16
								c-1.02,0-1.928-0.273-2.759-0.748l0.025-0.097c0.935-0.061,1.845-0.029,2.644-0.152c0.387-0.065,0.729-0.182,0.772-0.291
								c0.11-0.092,0.053-0.556-0.128-0.87c-0.159-0.339-0.408-0.588-0.77-0.656c-0.358-0.079-0.782-0.012-1.189,0.116
								c-0.826,0.261-1.62,0.732-2.342,1.271L204.945,230.673z"/>
						</g>
						<g>
							<path style="fill:#482939;" d="M196.37,230.071c-0.717-0.397-1.462-0.751-2.22-1.018c-0.376-0.136-0.758-0.245-1.125-0.295
								c-0.37-0.044-0.69,0.038-0.728,0.195c-0.006,0.06-0.023,0.107-0.039,0.159c0.007,0.065,0.009,0.124,0.004,0.184
								c0.031,0.047,0.041,0.091,0.064,0.134c0.048,0.035,0.058,0.077,0.113,0.113c0.18,0.157,0.506,0.294,0.85,0.42
								c0.7,0.255,1.494,0.43,2.307,0.696l0.003,0.1c-0.828,0.282-1.69,0.333-2.58,0.167c-0.441-0.092-0.911-0.275-1.307-0.712
								c-0.096-0.104-0.166-0.261-0.236-0.391c-0.053-0.146-0.073-0.309-0.096-0.459c0.012-0.145,0.031-0.29,0.055-0.43
								c0.049-0.141,0.121-0.282,0.19-0.413c0.098-0.12,0.231-0.241,0.359-0.323c0.138-0.051,0.289-0.121,0.421-0.131
								c0.272-0.031,0.508,0.007,0.736,0.052c0.439,0.115,0.833,0.287,1.211,0.477c0.742,0.407,1.424,0.88,2.075,1.393
								L196.37,230.071z"/>
						</g>
					</g>
				</g>
			</g>
		</g>
		<g>
			<g>
				<g>
					<path style="fill:#EC5F63;" d="M149.487,277.05c-2.315,5.428-26.534,50.074-23,55.251c4.025,5.896,18.481,13.588,23.82,4.879
						C160.519,320.521,151.996,296.5,149.487,277.05z"/>
					<path style="fill:none;stroke:#E5E3F4;stroke-miterlimit:10;" d="M147.442,330.332c-0.165,1.104-0.494,2.291-1.403,2.939
						c-0.906,0.646-2.123,0.573-3.23,0.459c-1.029-0.106-2.089-0.233-2.988-0.743c-5.089-2.882-3.204-12.729,1.448-15.122
						C148.596,314.094,148.067,326.145,147.442,330.332z"/>
					<path style="fill:none;stroke:#E5E3F4;stroke-miterlimit:10;" d="M147.639,292.306c3.292,3.052,7.002,3.612,4.143,7.036
						C145.965,306.309,141.556,286.668,147.639,292.306z"/>
				</g>
				<g>
					<path style="fill:#482939;" d="M157.981,295.958c-0.003,5.891-0.241,11.785-0.793,17.661c-0.262,2.938-0.551,5.886-1.167,8.786
						c-0.648,2.881-1.364,5.797-2.741,8.439l-0.092-0.038c0.832-2.827,1.385-5.696,1.85-8.586c0.479-2.884,0.986-5.774,1.354-8.688
						c0.37-2.913,0.668-5.838,0.901-8.769c0.25-2.93,0.458-5.866,0.588-8.806L157.981,295.958z"/>
				</g>
			</g>
		</g>
	</g>
</g>
<g id="DESIGNED_BY_FREEPIK">
	<g>
		<g id="XMLID_319_">
			<g id="XMLID_338_">
				<path id="XMLID_346_" style="fill:#1D262D;" d="M260.104,465.465c-0.432,0.443-0.803,0.931-1.108,1.453l-0.465-0.241
					c-0.067-0.298-0.349-0.503-0.659-0.466c-0.331,0.039-0.568,0.339-0.529,0.67c0.039,0.331,0.339,0.568,0.67,0.529
					c0.066-0.008,0.127-0.026,0.184-0.052l0.451,0.234c-0.251,0.554-0.433,1.139-0.539,1.744l0.747,0.132
					c0.23-1.306,0.85-2.507,1.792-3.473L260.104,465.465z"/>
				<path id="XMLID_345_" style="fill:#1D262D;" d="M265.592,463.163c-0.171,0-0.341,0.006-0.51,0.017l-0.074-0.626
					c0.188-0.149,0.296-0.389,0.266-0.645c-0.046-0.393-0.402-0.674-0.795-0.628c-0.393,0.046-0.674,0.402-0.628,0.795
					c0.03,0.254,0.189,0.461,0.404,0.564l0.074,0.624c-0.714,0.116-1.403,0.332-2.06,0.646l0.327,0.684
					c0.934-0.447,1.942-0.673,2.995-0.673c0.496,0,0.993,0.053,1.475,0.158l0.161-0.741
					C266.692,463.222,266.142,463.163,265.592,463.163z"/>
				<path id="XMLID_344_" style="fill:#1D262D;" d="M272.194,465.711c0.331-0.04,0.566-0.341,0.526-0.672
					c-0.04-0.331-0.341-0.566-0.672-0.526c-0.309,0.038-0.535,0.304-0.53,0.609l-0.416,0.363c-0.418-0.43-0.889-0.813-1.408-1.139
					l-0.404,0.641c1.134,0.715,2.021,1.726,2.563,2.925l0.69-0.313c-0.251-0.554-0.567-1.072-0.942-1.545l0.402-0.351
					C272.065,465.716,272.129,465.719,272.194,465.711z"/>
				<path id="XMLID_343_" style="fill:#1D262D;" d="M265.044,473.372c-0.386,0.023-0.775,0.035-1.157,0.035
					c-0.88,0-1.733-0.061-2.478-0.179c-0.39-0.062-0.846-0.155-1.27-0.292c1.046,1.861,3.069,3.125,5.388,3.125
					c2.855,0,5.262-1.916,5.95-4.504c-0.682,0.449-1.505,0.825-2.459,1.123C267.839,473.047,266.463,473.286,265.044,473.372z"/>
				<path id="XMLID_339_" style="fill:#1D262D;" d="M265.592,464.68c-3.352,0-6.08,2.666-6.08,5.943
					c0,0.426,0.046,0.849,0.137,1.261c0.673,0.483,2.706,0.89,5.348,0.731c2.879-0.173,5.297-0.957,6.672-2.159
					c-0.006-0.195-0.021-0.39-0.045-0.582C271.244,466.913,268.65,464.68,265.592,464.68z M263.432,471.194
					c-1.02,0-1.85-0.83-1.85-1.85c0-1.02,0.83-1.85,1.85-1.85c1.02,0,1.85,0.83,1.85,1.85
					C265.282,470.365,264.452,471.194,263.432,471.194z M268.17,470.286c-0.75,0-1.36-0.61-1.36-1.36s0.61-1.361,1.36-1.361
					c0.75,0,1.361,0.61,1.361,1.361S268.92,470.286,268.17,470.286z"/>
			</g>
			<path id="XMLID_336_" style="fill:#1D262D;" d="M281.595,466.547c-0.295-0.116-0.805-0.309-1.382-0.237
				c-0.551,0.069-0.844,0.341-0.844,1.007v0.866h2.228v1.717h-2.228v5.455h-1.932v-5.455h-1.34v-1.717h1.34v-0.888
				c0-1.68,0.896-2.783,2.568-2.783c0.643,0,1.157,0.122,1.59,0.308L281.595,466.547z"/>
			<path id="XMLID_334_" style="fill:#1D262D;" d="M286.298,469.879c-0.177-0.03-0.358-0.046-0.526-0.046
				c-0.896,0-1.51,0.548-1.51,1.614v3.908h-1.932v-7.172h1.873v0.785c0.451-0.673,1.14-0.977,2.021-0.977
				c0.414,0,0.848,0.128,1.094,0.337L286.298,469.879z"/>
			<path id="XMLID_331_" style="fill:#1D262D;" d="M293.965,471.757c0,0.222-0.015,0.489-0.037,0.651h-5.085
				c0.207,1.036,0.933,1.488,1.843,1.488c0.622,0,1.295-0.252,1.813-0.688l1.133,1.243c-0.814,0.748-1.85,1.088-3.057,1.088
				c-2.198,0-3.723-1.495-3.723-3.753c0-2.258,1.48-3.797,3.627-3.797C292.544,467.99,293.958,469.522,293.965,471.757z
				 M288.851,471.091h3.175c-0.177-0.918-0.733-1.436-1.562-1.436C289.554,469.655,289.021,470.203,288.851,471.091z"/>
			<path id="XMLID_328_" style="fill:#1D262D;" d="M301.618,471.757c0,0.222-0.015,0.489-0.037,0.651h-5.085
				c0.207,1.036,0.932,1.488,1.843,1.488c0.622,0,1.295-0.252,1.814-0.688l1.132,1.243c-0.814,0.748-1.85,1.088-3.057,1.088
				c-2.198,0-3.723-1.495-3.723-3.753c0-2.258,1.48-3.797,3.627-3.797C300.197,467.99,301.611,469.522,301.618,471.757z
				 M296.504,471.091h3.175c-0.178-0.918-0.733-1.436-1.562-1.436C297.207,469.655,296.674,470.203,296.504,471.091z"/>
			<path id="XMLID_325_" style="fill:#1D262D;" d="M309.964,471.764c0,2.154-1.495,3.775-3.471,3.775
				c-0.962,0-1.643-0.378-2.109-0.933v3.708h-1.924v-10.133h1.887v0.792c0.466-0.585,1.155-0.984,2.139-0.984
				C308.469,467.99,309.964,469.61,309.964,471.764z M304.287,471.764c0,1.132,0.747,1.976,1.843,1.976
				c1.14,0,1.85-0.881,1.85-1.976c0-1.095-0.71-1.976-1.85-1.976C305.035,469.788,304.287,470.632,304.287,471.764z"/>
			<path id="XMLID_322_" style="fill:#1D262D;" d="M313.068,465.836c0,0.696-0.54,1.229-1.236,1.229
				c-0.696,0-1.229-0.533-1.229-1.229c0-0.696,0.533-1.243,1.229-1.243C312.527,464.592,313.068,465.14,313.068,465.836z
				 M312.809,475.354h-1.932v-7.172h1.932V475.354z"/>
			<path id="XMLID_320_" style="fill:#1D262D;" d="M316.032,470.736l2.701-2.554h2.368l-3.479,3.375l3.501,3.797h-2.376
				l-2.716-2.901v2.901H314.1v-10.658h1.932V470.736z"/>
		</g>
		<g>
			<path style="fill:#1D262D;" d="M184.412,475.289v-1.055c-0.527,0.718-1.391,1.23-2.388,1.23c-1.846,0-3.149-1.406-3.149-3.706
				c0-2.256,1.289-3.721,3.149-3.721c0.952,0,1.816,0.469,2.388,1.245v-3.765h1.099v9.77H184.412z M184.412,473.37v-3.208
				c-0.395-0.615-1.245-1.143-2.124-1.143c-1.421,0-2.27,1.172-2.27,2.739c0,1.567,0.85,2.724,2.27,2.724
				C183.168,474.483,184.017,473.986,184.412,473.37z"/>
			<path style="fill:#1D262D;" d="M186.932,471.744c0-2.051,1.465-3.706,3.486-3.706c2.139,0,3.398,1.67,3.398,3.794v0.279h-5.727
				c0.088,1.333,1.025,2.446,2.549,2.446c0.805,0,1.626-0.322,2.182-0.894l0.527,0.718c-0.703,0.703-1.655,1.084-2.812,1.084
				C188.44,475.465,186.932,473.956,186.932,471.744z M190.403,468.947c-1.509,0-2.256,1.274-2.314,2.358h4.643
				C192.718,470.25,192.015,468.947,190.403,468.947z"/>
			<path style="fill:#1D262D;" d="M194.607,474.351l0.571-0.791c0.469,0.542,1.362,1.011,2.329,1.011c1.084,0,1.67-0.513,1.67-1.216
				c0-1.714-4.38-0.659-4.38-3.281c0-1.098,0.952-2.036,2.636-2.036c1.201,0,2.051,0.454,2.622,1.026l-0.513,0.762
				c-0.424-0.513-1.201-0.894-2.109-0.894c-0.967,0-1.567,0.483-1.567,1.113c0,1.552,4.38,0.527,4.38,3.281
				c0,1.187-0.952,2.138-2.783,2.138C196.306,475.465,195.325,475.113,194.607,474.351z"/>
			<path style="fill:#1D262D;" d="M201.477,466.471c0-0.41,0.337-0.747,0.732-0.747c0.41,0,0.747,0.337,0.747,0.747
				c0,0.41-0.337,0.732-0.747,0.732C201.814,467.203,201.477,466.881,201.477,466.471z M201.667,475.289v-7.075h1.099v7.075H201.667
				z"/>
			<path style="fill:#1D262D;" d="M204.582,477.105l0.556-0.82c0.586,0.703,1.289,0.967,2.3,0.967c1.172,0,2.27-0.571,2.27-2.124
				v-1.011c-0.513,0.718-1.377,1.26-2.373,1.26c-1.845,0-3.149-1.377-3.149-3.662c0-2.27,1.289-3.677,3.149-3.677
				c0.952,0,1.802,0.469,2.373,1.245v-1.069h1.098v6.87c0,2.344-1.641,3.076-3.369,3.076
				C206.237,478.16,205.417,477.926,204.582,477.105z M209.709,473.253v-3.091c-0.381-0.615-1.23-1.143-2.109-1.143
				c-1.421,0-2.27,1.128-2.27,2.695c0,1.553,0.849,2.695,2.27,2.695C208.478,474.41,209.328,473.868,209.709,473.253z"/>
			<path style="fill:#1D262D;" d="M217.413,475.289v-4.629c0-1.245-0.63-1.641-1.582-1.641c-0.865,0-1.685,0.527-2.095,1.099v5.17
				h-1.099v-7.075h1.099v1.025c0.498-0.586,1.465-1.201,2.519-1.201c1.48,0,2.256,0.747,2.256,2.285v4.966H217.413z"/>
			<path style="fill:#1D262D;" d="M219.932,471.744c0-2.051,1.465-3.706,3.486-3.706c2.139,0,3.398,1.67,3.398,3.794v0.279h-5.727
				c0.088,1.333,1.025,2.446,2.549,2.446c0.806,0,1.626-0.322,2.183-0.894l0.527,0.718c-0.703,0.703-1.655,1.084-2.812,1.084
				C221.441,475.465,219.932,473.956,219.932,471.744z M223.404,468.947c-1.509,0-2.256,1.274-2.314,2.358h4.643
				C225.718,470.25,225.015,468.947,223.404,468.947z"/>
			<path style="fill:#1D262D;" d="M233.35,475.289v-1.055c-0.527,0.718-1.392,1.23-2.388,1.23c-1.846,0-3.149-1.406-3.149-3.706
				c0-2.256,1.289-3.721,3.149-3.721c0.952,0,1.817,0.469,2.388,1.245v-3.765h1.098v9.77H233.35z M233.35,473.37v-3.208
				c-0.396-0.615-1.245-1.143-2.124-1.143c-1.421,0-2.27,1.172-2.27,2.739c0,1.567,0.849,2.724,2.27,2.724
				C232.105,474.483,232.954,473.986,233.35,473.37z"/>
			<path style="fill:#1D262D;" d="M239.692,475.289v-9.77h1.098v3.765c0.572-0.776,1.421-1.245,2.388-1.245
				c1.845,0,3.149,1.465,3.149,3.721c0,2.299-1.304,3.706-3.149,3.706c-0.996,0-1.86-0.513-2.388-1.23v1.055H239.692z
				 M242.9,474.483c1.436,0,2.285-1.157,2.285-2.724c0-1.568-0.85-2.739-2.285-2.739c-0.864,0-1.728,0.527-2.109,1.143v3.208
				C241.171,473.986,242.036,474.483,242.9,474.483z"/>
			<path style="fill:#1D262D;" d="M247.528,477.061c0.161,0.073,0.425,0.117,0.601,0.117c0.483,0,0.805-0.161,1.055-0.747
				l0.469-1.069l-2.959-7.148h1.187l2.358,5.8l2.344-5.8h1.201l-3.545,8.51c-0.425,1.025-1.143,1.421-2.08,1.435
				c-0.234,0-0.601-0.044-0.805-0.103L247.528,477.061z"/>
		</g>
	</g>
</g>
</svg>
